Coordinates
version=1
nRows=21
nColumns=19
inDegrees=yes

Units are S.I. units (second, meters, Newtons, ...)
If the header above contains a line with 'inDegrees', this indicates whether rotational values are in degrees (yes) or radians (no).

endheader
time	pelvis_tilt	pelvis_list	pelvis_rotation	pelvis_tx	pelvis_ty	pelvis_tz	hip_flexion_r	hip_adduction_r	hip_rotation_r	knee_angle_r	knee_angle_r_beta	ankle_angle_r	hip_flexion_l	hip_adduction_l	hip_rotation_l	knee_angle_l	knee_angle_l_beta	ankle_angle_l
     11.09333333	      1.76785287	     -5.89522163	     -2.59629156	      2.10456664	      1.11997372	      1.04213629	     17.56243995	     10.25076418	     -6.38780987	     13.48397084	      0.23533969	      6.90947185	    -21.96687646	     -8.56131574	    -16.75687867	     33.19288719	      0.57932517	    -15.86146029
     11.10000000	      2.31410711	     -6.55754968	     -2.76838050	      2.10510926	      1.11641586	      1.04295616	     17.14155365	     10.82883017	     -7.19425227	     14.92344510	      0.26046325	      6.34621831	    -21.90046922	     -9.79121534	    -17.41062064	     36.19497493	      0.63172149	    -15.36992544
     11.10666667	      2.56299982	     -7.12862029	     -3.00664185	      2.10541444	      1.11215385	      1.04388327	     17.23070248	     11.27023136	     -8.04634772	     16.89843356	      0.29493330	      5.89362770	    -21.41170897	    -10.94072430	    -17.87439406	     39.34594317	      0.68671626	    -14.76544882
     11.11333333	      3.26798450	     -7.80195103	     -3.27089054	      2.10555566	      1.10814618	      1.04477274	     16.80360093	     11.79138902	     -8.77303566	     18.98738457	      0.33139238	      5.61234205	    -21.45633241	    -12.11629227	    -18.36632554	     42.39762311	      0.73997812	    -14.19435768
     11.12000000	      3.29668398	     -8.34427254	     -3.52136048	      2.10537120	      1.10318091	      1.04568712	     17.23934537	     12.15929328	     -9.46677464	     21.39063975	      0.37333709	      5.49797116	    -20.52932855	    -13.24828660	    -18.47328756	     45.74514509	      0.79840340	    -13.53847217
     11.12666667	      3.68478118	     -8.96393263	     -3.81056167	      2.10490321	      1.09846241	      1.04657393	     17.25137415	     12.61439655	     -9.94599423	     23.81034582	      0.41556893	      5.67795607	    -20.00049100	    -14.37625858	    -18.60238878	     49.00452162	      0.85529025	    -12.87434166
     11.13333333	      4.43391981	     -9.66963134	     -4.10591878	      2.10411104	      1.09406764	      1.04739408	     16.82173887	     13.17288035	    -10.19837694	     26.18045106	      0.45693507	      6.18565907	    -19.86551818	    -15.51778448	    -18.75265150	     52.17136018	      0.91056201	    -12.19067239
     11.14000000	      4.46818043	    -10.29255193	     -4.41627134	      2.10301066	      1.08886968	      1.04825849	     17.19994464	     13.69696622	    -10.35959223	     28.61184673	      0.49937093	      6.97060845	    -18.71433774	    -16.64271609	    -18.53157528	     55.57865734	      0.97003056	    -11.39172874
     11.14666667	      5.18181070	    -11.01536753	     -4.74268316	      2.10155908	      1.08448438	      1.04898065	     16.75427959	     14.33402512	    -10.27657663	     30.91251616	      0.53952519	      8.08050506	    -18.37160814	    -17.71176894	    -18.43765688	     58.74052965	      1.02521565	    -10.59974047
     11.15333333	      5.17705789	    -11.66563171	     -5.05258664	      2.09978544	      1.07945716	      1.04977424	     17.06231349	     14.97584734	    -10.13696957	     33.11470254	      0.57796059	      9.34245862	    -16.98477856	    -18.80386234	    -17.95873333	     62.11115343	      1.08404413	     -9.71821550
     11.16000000	      5.95614081	    -12.40462796	     -5.31418385	      2.09776655	      1.07550035	      1.05029680	     16.36993221	     15.69104908	     -9.81497957	     35.07224976	      0.61212623	     10.88805281	    -16.52383192	    -19.81144576	    -17.60793622	     65.16748648	      1.13738720	     -8.84750249
     11.16666667	      5.82594283	    -13.27852578	     -5.43613576	      2.09568623	      1.07078687	      1.05076318	     16.58489368	     16.59286018	     -9.74137073	     36.78734225	      0.64206025	     12.29617449	    -14.76946894	    -21.13041356	    -16.71813550	     68.46268387	      1.19489925	     -7.85237273
     11.17333333	      6.33180532	    -14.04986720	     -5.55751328	      2.09339376	      1.06711554	      1.05103818	     15.97849143	     17.37866997	     -9.43243317	     38.31256926	      0.66868048	     13.85216727	    -13.73780631	    -22.12956936	    -15.89515124	     71.41604177	      1.24644507	     -6.87010194
     11.18000000	      6.20372734	    -14.89156138	     -5.39931213	      2.09116145	      1.06312063	      1.05103596	     15.96476352	     18.20218691	     -9.53963692	     39.52964021	      0.68992237	     15.27452436	    -11.65255451	    -23.31393548	    -14.41508402	     74.46788888	      1.29970985	     -5.92770693
     11.18666667	      6.10528759	    -15.50339569	     -5.28236532	      2.08881882	      1.05957514	      1.05096856	     15.83891778	     18.79260923	     -9.53343851	     40.63539835	      0.70922149	     16.67428524	     -9.50169854	    -24.10035281	    -12.81184442	     77.30166173	      1.34916851	     -4.93379203
     11.19333333	      6.27312021	    -16.27645954	     -4.88605204	      2.08663815	      1.05679554	      1.05054582	     15.23275888	     19.49061126	     -9.71842749	     41.31156918	      0.72102290	     17.88658751	     -7.51523635	    -25.01375842	    -10.99580175	     79.92166203	      1.39489615	     -4.02870410
     11.20000000	      6.21101583	    -16.85561371	     -4.40423808	      2.08453587	      1.05427022	      1.05000300	     14.79933280	     19.97176202	    -10.00696866	     41.82003826	      0.72989736	     18.97187338	     -5.07982813	    -25.62270995	     -8.87174476	     82.38115202	      1.43782234	     -3.18761688
     11.20666667	      5.89374929	    -17.24213051	     -3.92791248	      2.08247105	      1.05198147	      1.04937168	     14.57629582	     20.25847759	    -10.30289019	     42.20741570	      0.73665837	     19.95728418	     -2.23616520	    -25.86044652	     -6.53759945	     84.66092570	      1.47761190	     -2.46273081
     11.21333333	      5.63594290	    -17.55677278	     -3.34945161	      2.08057371	      1.05028849	      1.04865254	     14.15711815	     20.45146979	    -10.67240349	     42.34573038	      0.73907242	     20.75233069	      0.58363080	    -25.93081034	     -4.17366626	     86.67597566	      1.51278116	     -1.74787961
     11.22000000	      5.19514851	    -17.70567222	     -2.82356349	      2.07877611	      1.04893997	      1.04795537	     13.83962235	     20.50443167	    -10.96440063	     42.34900565	      0.73912958	     21.47633473	      3.60057347	    -25.69433803	     -1.84026093	     88.45891964	      1.54389940	     -1.19305308
     11.22666667	      5.24098145	    -17.83994021	     -2.12965034	      2.07715173	      1.04868310	      1.04705941	     12.82770390	     20.53092367	    -11.27447486	     42.02113096	      0.73340709	     22.00867651	      6.00967695	    -25.35075931	      0.33469603	     89.88764816	      1.56883542	     -0.66141809
